/* XPM */
static char *apropos_xpm[] = {
"32 32 124 2",
"AA	c #000000",
"BA	c #AAB9E4",
"CA	c #A7B6E2",
"DA	c #A1B1DF",
"EA	c #9BABDC",
"FA	c #98A8DA",
"GA	c #93A2D7",
"HA	c #8C9CD4",
"IA	c #8796D1",
"JA	c #8493CF",
"KA	c #7D8CCC",
"LA	c #7888C9",
"MA	c #F0F6FF",
"NA	c #D4DDF7",
"OA	c #8696DF",
"PA	c #EFF5FF",
"QA	c #7181C6",
"RA	c #A3B3E0",
"SA	c #8597E0",
"TA	c #6B7BC2",
"UA	c #A0AFDE",
"VA	c #D3DBF7",
"WA	c #8596E0",
"XA	c #EBF2FF",
"YA	c #6474BF",
"ZA	c #9CACDD",
"aA	c #D1DAF6",
"bA	c #8394DE",
"cA	c #E9EFFF",
"dA	c #DEE6FF",
"eA	c #E7EEFF",
"fA	c #6373BE",
"gA	c #99A8DB",
"hA	c #D7E0F9",
"iA	c #7789DB",
"jA	c #98A6E7",
"kA	c #93A2E7",
"lA	c #9EACE9",
"mA	c #6273C0",
"nA	c #95A5D9",
"oA	c #EEE2EA",
"pA	c #DA757E",
"qA	c #D3616B",
"rA	c #E4CED8",
"sA	c #ECF2FF",
"tA	c #B2BEEE",
"uA	c #ACB9EC",
"vA	c #92A1D7",
"wA	c #DA727A",
"xA	c #C92935",
"yA	c #BF3A45",
"zA	c #EBF1FF",
"0A	c #E6EDFF",
"1A	c #8E9ED5",
"2A	c #D65C65",
"3A	c #B2242F",
"4A	c #E9F0FF",
"5A	c #E5ECFF",
"6A	c #8B9AD3",
"7A	c #D4555E",
"8A	c #AD232E",
"9A	c #E8EFFF",
"+A	c #E4EAFF",
"/A	c #8797D1",
"AB	c #D24B55",
"BB	c #A7222C",
"CB	c #E7EDFF",
"DB	c #E2E9FF",
"EB	c #D04651",
"FB	c #A3212B",
"GB	c #E1E8FF",
"HB	c #8090CE",
"IB	c #CF424D",
"JB	c #A0212A",
"KB	c #E4EBFF",
"LB	c #DFE7FF",
"MB	c #7D8DCC",
"NB	c #CD3D48",
"OB	c #9C2029",
"PB	c #DEE5FF",
"QB	c #7989CA",
"RB	c #EEF4FF",
"SB	c #EAF0FF",
"TB	c #C7414D",
"UB	c #942A34",
"VB	c #DDE4FF",
"WB	c #7686C8",
"XB	c #EDF3FF",
"YB	c #D5BED0",
"ZB	c #B53F4B",
"aB	c #A03842",
"bB	c #BEB3C5",
"cB	c #E0E7FF",
"dB	c #DBE3FF",
"eB	c #7382C6",
"fB	c #E3E9FF",
"gB	c #DAE1FF",
"hB	c #6F7FC4",
"iB	c #E6ECFF",
"jB	c #E3D6E9",
"kB	c #D8717C",
"lB	c #D05E6A",
"mB	c #D6C1D6",
"nB	c #D8E0FF",
"oB	c #6B7BC3",
"pB	c #D7656F",
"qB	c #B63844",
"rB	c #D7DFFF",
"sB	c #6878C1",
"tB	c #E3EAFF",
"uB	c #CF535E",
"vB	c #9E2C36",
"wB	c #D6DDFF",
"xB	c #D5C0D7",
"yB	c #B6434F",
"zB	c #A03743",
"0B	c #BAAEC6",
"1B	c #D4DCFF",
"2B	c #DCE3FF",
"3B	c #D3DBFF",
"4B	c #D2DAFF",
"5B	c #DAE2FF",
"6B	c #E2E8FF",
"7B	c #D9E0FF",
"AAAAAAAAAAAAAAAAAAAAAAAAAAAAAAAAAAAAAAAAAAAAAAAAAAAAAAAAAAAAAAAA",
"AAAAAAAAAAAAAAAAAAAAAAAAAAAAAAAAAAAAAAAAAAAAAAAAAAAAAAAAAAAAAAAA",
"AAAAAAAAAAAAAAAAAAAAAAAAAAAAAAAAAAAAAAAAAAAAAAAAAAAAAAAAAAAAAAAA",
"AAAAAAAAAABACACADADAEAFAFAGAGAHAHAIAJAJAKAKALAAAAAAAAAAAAAAAAAAA",
"AAAAAAAAAACAMAMAMAMAMAMAMAMAMAMAMAMAMAMANAOAPAQAAAAAAAAAAAAAAAAA",
"AAAAAAAAAARAMAMAMAMAMAMAMAMAMAMAMAMAMAMANASAMAMATAAAAAAAAAAAAAAA",
"AAAAAAAAAAUAMAMAMAMAMAMAMAMAMAMAMAMAMAMAVAWAMAXAXAYAAAAAAAAAAAAA",
"AAAAAAAAAAZAMAMAMAMAMAMAMAMAMAMAMAMAMAMAaAbAcAdAdAeAfAAAAAAAAAAA",
"AAAAAAAAAAgAMAMAMAMAMAMAMAMAMAMAMAMAMAMAhAiAjAkAkAlAmAAAAAAAAAAA",
"AAAAAAAAAAnAMAMAMAMAMAMAMAMAoApAqArAsAsAsAtAuAuAuAuAmAAAAAAAAAAA",
"AAAAAAAAAAvAMAMAMAMAMAMAMAMAwAxAxAyAzAzAzAzA0A0A0A0AfAAAAAAAAAAA",
"AAAAAAAAAA1AMAMAMAMAMAMAMAMA2AxAxA3A4A4A4A4A5A5A5A5AfAAAAAAAAAAA",
"AAAAAAAAAA6AMAMAMAMAMAMAMAMA7AxAxA8A9A9A9A9A+A+A+A+AfAAAAAAAAAAA",
"AAAAAAAAAA/AMAMAMAMAMAMAMAsAABxAxABBCBCBCBCBDBDBDBDBfAAAAAAAAAAA",
"AAAAAAAAAAJAMAMAMAMAMAMAsAsAEBxAxAFB5A5A5A5AGBGBGBGBfAAAAAAAAAAA",
"AAAAAAAAAAHBMAMAMAMAMAsAsAsAIBxAxAJBKBKBKBKBLBLBLBLBfAAAAAAAAAAA",
"AAAAAAAAAAMBMAMAMAMAzAzAzAzANBxAxAOBDBDBDBDBPBPBPBPBfAAAAAAAAAAA",
"AAAAAAAAAAQBRBRBRBRBSBSBSBSBTBxAxAUBGBGBGBGBVBVBVBVBfAAAAAAAAAAA",
"AAAAAAAAAAWBXBXBXBXB9A9A9A9AYBZBaBbBcBcBcBcBdBdBdBdBfAAAAAAAAAAA",
"AAAAAAAAAAeBXAXAXAXAeAeAeAeAfBfBfBfBPBPBPBPBgBgBgBgBfAAAAAAAAAAA",
"AAAAAAAAAAhBSBSBSBSBiBiBiBiBjBkBlBmBVBVBVBVBnBnBnBnBfAAAAAAAAAAA",
"AAAAAAAAAAoBcAcAcAcAKBKBKBKBpBxAxAqBdBdBdBdBrBrBrBrBfAAAAAAAAAAA",
"AAAAAAAAAAsBeAeAeAeAtBtBtBtBuBxAxAvBgBgBgBgBwBwBwBwBfAAAAAAAAAAA",
"AAAAAAAAAAYAiBiBiBiBGBGBGBGBxByBzB0BnBnBnBnB1B1B1B1BfAAAAAAAAAAA",
"AAAAAAAAAAfAKBKBKBKBcBcBcBcB2B2B2B2BrBrBrBrB3B4B4B4BfAAAAAAAAAAA",
"AAAAAAAAAAfAtBtBtBtBdAdAdAdA5B5B5B5BwBwBwB4B4B4B4B4BfAAAAAAAAAAA",
"AAAAAAAAAAfA6B6B6B6BVBVBVBVB7B7B7B7B1B1B4B4B4B4B4B4BfAAAAAAAAAAA",
"AAAAAAAAAAfAcBcBcBcB2B2B2B2BrBrBrBrB3B4B4B4B4B4B4B4BfAAAAAAAAAAA",
"AAAAAAAAAAfAfAfAfAfAfAfAfAfAfAfAfAfAfAfAfAfAfAfAfAfAfAAAAAAAAAAA",
"AAAAAAAAAAAAAAAAAAAAAAAAAAAAAAAAAAAAAAAAAAAAAAAAAAAAAAAAAAAAAAAA",
"AAAAAAAAAAAAAAAAAAAAAAAAAAAAAAAAAAAAAAAAAAAAAAAAAAAAAAAAAAAAAAAA",
"AAAAAAAAAAAAAAAAAAAAAAAAAAAAAAAAAAAAAAAAAAAAAAAAAAAAAAAAAAAAAAAA"
};
